<?xml version="1.0" encoding="iso-8859-1"?>
<!-- Generator: Adobe Illustrator 19.0.0, SVG Export Plug-In . SVG Version: 6.00 Build 0)  -->
<svg version="1.1" id="Capa_1" xmlns="http://www.w3.org/2000/svg" xmlns:xlink="http://www.w3.org/1999/xlink" x="0px" y="0px"
	 viewBox="0 0 502.624 502.624" style="enable-background:new 0 0 502.624 502.624;" xml:space="preserve">
<g>
	<g>
		<g>
			<rect x="343.806" y="206.363" transform="matrix(-0.9648 -0.2629 0.2629 -0.9648 648.4861 531.5052)" width="32" height="32"/>
			<path d="M288.968,70.624c0-26.51-21.49-48-48-48c-26.51,0-48,21.49-48,48v160c-44.161,0.053-79.947,35.839-80,80v85.616l64,80
				v26.384h32v-37.616l-64-80v-74.384c0-26.51,21.49-48,48-48v112h32v-304c0-8.837,7.163-16,16-16s16,7.163,16,16v140.224
				l52.336,14.272l8.4-30.88l-28.8-7.84L288.968,70.624z"/>
			<polygon points="410.312,219.504 401.912,250.368 432.968,258.848 432.968,401.296 384.968,465.296 384.968,502.624 
				416.968,502.624 416.968,475.952 464.968,411.952 464.968,234.4 			"/>
			<polygon points="80.968,166.624 112.968,166.624 112.968,61.248 133.656,81.936 156.28,59.312 96.968,0 37.656,59.312 
				60.28,81.936 80.968,61.248 			"/>
			<rect x="80.968" y="198.624" width="32" height="32"/>
		</g>
	</g>
</g>
<g>
</g>
<g>
</g>
<g>
</g>
<g>
</g>
<g>
</g>
<g>
</g>
<g>
</g>
<g>
</g>
<g>
</g>
<g>
</g>
<g>
</g>
<g>
</g>
<g>
</g>
<g>
</g>
<g>
</g>
</svg>
